<svg xmlns="http://www.w3.org/2000/svg" viewBox="0 0 700 400">
  <!-- Background -->
  <rect width="700" height="400" fill="#f8fafc"/>
  
  <!-- Title -->
  <text x="350" y="30" text-anchor="middle" fill="#1e293b" font-size="20" font-weight="bold">AI 使用即挖矿</text>
  <text x="350" y="50" text-anchor="middle" fill="#64748b" font-size="12">AI Usage = Mining</text>
  
  <!-- Flow -->
  
  <!-- User -->
  <circle cx="100" cy="180" r="40" fill="#3b82f6"/>
  <text x="100" y="175" text-anchor="middle" fill="#ffffff" font-size="14" font-weight="bold">用户</text>
  <text x="100" y="195" text-anchor="middle" fill="#dbeafe" font-size="10">User</text>
  
  <!-- Arrow 1 -->
  <path d="M145 180 L195 180" stroke="#64748b" stroke-width="3" fill="none" marker-end="url(#arrow)"/>
  <text x="170" y="170" text-anchor="middle" fill="#64748b" font-size="10">付费</text>
  
  <!-- AI Gateway -->
  <rect x="200" y="130" width="120" height="100" rx="12" fill="#8b5cf6"/>
  <text x="260" y="160" text-anchor="middle" fill="#ffffff" font-size="14" font-weight="bold">AI Gateway</text>
  <text x="260" y="180" text-anchor="middle" fill="#ede9fe" font-size="10">ai.pulsepay.fun</text>
  <text x="260" y="200" text-anchor="middle" fill="#d8b4fe" font-size="9">OpenAI · Claude · Gemini</text>
  
  <!-- Arrow 2 -->
  <path d="M325 180 L375 180" stroke="#64748b" stroke-width="3" fill="none" marker-end="url(#arrow)"/>
  <text x="350" y="170" text-anchor="middle" fill="#64748b" font-size="10">调用成功</text>
  
  <!-- Platform -->
  <rect x="380" y="130" width="120" height="100" rx="12" fill="#10b981"/>
  <text x="440" y="160" text-anchor="middle" fill="#ffffff" font-size="14" font-weight="bold">平台收入</text>
  <text x="440" y="180" text-anchor="middle" fill="#d1fae5" font-size="10">Platform Revenue</text>
  <text x="440" y="200" text-anchor="middle" fill="#a7f3d0" font-size="9">AI调用费+手续费</text>
  
  <!-- Arrow 3 -->
  <path d="M380 260 L200 260" stroke="#64748b" stroke-width="3" fill="none" marker-end="url(#arrow)"/>
  <text x="290" y="275" text-anchor="middle" fill="#64748b" font-size="10">质押 AIP</text>
  
  <!-- AIP Token -->
  <circle cx="200" cy="330" r="50" fill="#ffd700"/>
  <text x="200" y="325" text-anchor="middle" fill="#333" font-size="16" font-weight="bold">AIP</text>
  <text x="200" y="345" text-anchor="middle" fill="#666" font-size="10">Token</text>
  <text x="200" y="360" text-anchor="middle" fill="#666" font-size="9">持有即挖矿</text>
  
  <!-- Arrow 4 -->
  <path d="M255 330 L305 330" stroke="#64748b" stroke-width="3" fill="none" marker-end="url(#arrow)"/>
  
  <!-- Revenue Share -->
  <rect x="310" y="280" width="150" height="100" rx="12" fill="#f59e0b"/>
  <text x="385" y="310" text-anchor="middle" fill="#ffffff" font-size="14" font-weight="bold">收益分成</text>
  <text x="385" y="330" text-anchor="middle" fill="#fef3c7" font-size="10">Revenue Share</text>
  <text x="385" y="350" text-anchor="middle" fill="#fde68a" font-size="9">40% 给质押者</text>
  
  <!-- Arrow 5 -->
  <path d="M465 330 L515 330" stroke="#64748b" stroke-width="3" fill="none" marker-end="url(#arrow)"/>
  
  <!-- User Get -->
  <circle cx="580" cy="330" r="50" fill="#22c55e"/>
  <text x="580" y="325" text-anchor="middle" fill="#ffffff" font-size="14" font-weight="bold">用户</text>
  <text x="580" y="345" text-anchor="middle" fill="#dcfce7" font-size="10">获得</text>
  <text x="580" y="360" text-anchor="middle" fill="#bbf7d0" font-size="9">USDT/BNB 分红</text>
  
  <!-- Bottom Note -->
  <rect x="100" y="50" width="500" height="40" rx="8" fill="#fef3c7"/>
  <text x="350" y="70" text-anchor="middle" fill="#92400e" font-size="12">💡 持有 AIP = 分享 AI 发展的红利 | Hold AIP = Share AI growth dividends</text>
</svg>
